<svg xmlns="http://www.w3.org/2000/svg" viewBox="0 0 750 500"><g id="freepik--background-complete--inject-146"><path d="M93.16,310.52c0-1.92-.12-3.82-.14-5.7l.28.28c-4.54,0-9.08.16-13.63.17L66,305.33l.52-.51-.06,11.52-.46-.46c2.25,0,4.49,0,6.74.05l6.77.12,13.75.29Zm-13.37,6.1-6.86.12c-2.29.05-4.59,0-6.89.06h-.46v-.46l0-11.52v-.52H66l13.63.07c4.55,0,9.09.11,13.63.17h.29v.28c0,1.95-.09,3.9-.13,5.82l-.15,5.7Z" style="fill:#ebebeb"></path><path d="M78,325c0-1.92-.12-3.81-.14-5.7l.29.28c-4.55.06-9.09.17-13.64.17l-13.63.07.52-.52-.06,11.52-.46-.46c2.25,0,4.49,0,6.74.06l6.78.11,13.75.29Zm-13.37,6.11-6.85.11c-2.29.05-4.6,0-6.9.06h-.45v-.46l-.06-11.52v-.51h.51l13.63.06c4.55,0,9.09.12,13.64.17h.28v.28c0,2-.09,3.9-.14,5.82l-.14,5.7Z" style="fill:#ebebeb"></path><path d="M108.36,325c0-1.92-.11-3.81-.13-5.7l.28.28c-4.54.06-9.09.17-13.63.17l-13.63.07.51-.52-.05,11.52-.46-.46c2.24,0,4.48,0,6.74.06l6.77.11,13.75.29ZM95,331.15l-6.86.11c-2.29.05-4.59,0-6.89.06h-.46v-.46l-.06-11.52v-.51h.52l13.63.06c4.54,0,9.09.12,13.63.17h.28v.28c0,2-.09,3.9-.14,5.82l-.14,5.7Z" style="fill:#ebebeb"></path><path d="M679.15,325c0-1.92-.11-3.81-.13-5.7l.28.28c-4.55.06-9.09.17-13.63.17l-13.63.07.51-.52,0,11.52-.46-.46c2.24,0,4.48,0,6.74.06l6.77.11,13.75.29Zm-13.36,6.11-6.86.11c-2.29.05-4.6,0-6.89.06h-.46v-.46l-.06-11.52v-.51H652l13.63.06c4.54,0,9.08.12,13.63.17h.28v.28c0,2-.09,3.9-.14,5.82l-.14,5.7Z" style="fill:#ebebeb"></path><path d="M211.23,145.11c0-1.92-.12-3.81-.14-5.7l.28.28c-4.54.06-9.08.17-13.63.17l-13.63.07.52-.52-.06,11.52-.46-.46c2.25,0,4.49,0,6.74.06l6.77.12,13.75.28Zm-13.37,6.11-6.86.11c-2.29,0-4.59,0-6.89.06h-.45v-.46l-.05-11.52v-.51h.51l13.63.06c4.55,0,9.09.12,13.63.17h.29v.27c0,2-.08,3.9-.13,5.82l-.15,5.7Z" style="fill:#ebebeb"></path><path d="M679.15,41.05c0-1.92-.11-3.82-.13-5.7l.28.28c-4.55,0-9.09.16-13.63.17L652,35.86l.51-.51,0,11.52-.46-.46c2.24,0,4.48,0,6.74.06l6.77.11,13.75.29Zm-13.36,6.1-6.86.12c-2.29,0-4.6,0-6.89.06h-.46v-.46l-.06-11.52v-.52H652l13.63.07c4.54,0,9.08.12,13.63.17h.28v.28c0,1.95-.09,3.9-.14,5.82l-.14,5.7Z" style="fill:#ebebeb"></path><path d="M694.36,55.57c-.05-1.91-.12-3.81-.14-5.7l.28.29c-4.54.05-9.08.16-13.63.16l-13.63.07.52-.52-.06,11.52-.46-.46c2.25,0,4.49,0,6.74.06l6.78.12,13.74.28ZM681,61.68l-6.85.12c-2.3,0-4.6,0-6.9.05h-.45v-.47l-.06-11.52v-.51h.51l13.63.06c4.55,0,9.09.12,13.63.17h.29v.27c0,2-.09,3.9-.14,5.82l-.15,5.7Z" style="fill:#ebebeb"></path><path d="M78,41.06c0-1.92-.12-3.81-.14-5.7l.29.28c-4.55,0-9.09.17-13.64.17l-13.63.07.52-.52-.06,11.52-.46-.46c2.25,0,4.49,0,6.74.06l6.78.11,13.75.29ZM64.58,47.17l-6.85.11c-2.29,0-4.6,0-6.9.06h-.45v-.46l-.06-11.52v-.52h.51l13.63.06c4.55,0,9.09.12,13.64.17h.28v.28c0,2-.09,3.9-.14,5.82l-.14,5.7Z" style="fill:#ebebeb"></path><path d="M536.5,161.35c0,1.92.12,3.82.14,5.7l-.28-.28c4.54-.05,9.09-.16,13.63-.17l13.63-.06-.51.51,0-11.52.46.46c-2.25,0-4.49,0-6.74-.05l-6.77-.12-13.75-.29Zm13.37-6.1,6.86-.12c2.29,0,4.59,0,6.89-.06h.46v.46l0,11.52v.52h-.52L550,167.5c-4.54,0-9.09-.11-13.63-.17h-.28v-.28c0-2,.09-3.9.13-5.82l.15-5.7Z" style="fill:#ebebeb"></path><path d="M551.71,146.83c0,1.92.12,3.81.14,5.7l-.28-.28c4.54-.06,9.08-.17,13.63-.17l13.63-.07-.52.52.06-11.52.46.46c-2.25,0-4.49,0-6.74-.06l-6.78-.12L551.57,141Zm13.37-6.11,6.85-.11c2.3-.05,4.6,0,6.9-.06h.45V141l.06,11.52V153h-.51L565.2,153c-4.55,0-9.09-.12-13.63-.17h-.29v-.27c0-2,.09-3.9.14-5.82l.15-5.7Z" style="fill:#ebebeb"></path><rect x="256.1" width="1" height="109.1" style="fill:#c7c7c7"></rect><polygon points="302.35 153.2 298.67 161.29 214.53 161.29 210.86 153.2 246.68 128.41 266.53 128.41 302.35 153.2" style="fill:#ebebeb"></polygon><polygon points="269.01 104.52 266.53 128.41 246.68 128.41 244.2 104.52 269.01 104.52" style="fill:#dbdbdb"></polygon><polygon points="302.35 153.2 298.67 161.29 214.52 161.29 210.85 153.2 302.35 153.2" style="fill:#dbdbdb"></polygon><rect x="374.5" width="1" height="109.1" style="fill:#c7c7c7"></rect><polygon points="420.75 153.2 417.07 161.29 332.93 161.29 329.26 153.2 365.08 128.41 384.92 128.41 420.75 153.2" style="fill:#ebebeb"></polygon><polygon points="387.41 104.52 384.92 128.41 365.08 128.41 362.59 104.52 387.41 104.52" style="fill:#dbdbdb"></polygon><polygon points="420.74 153.2 417.06 161.29 332.92 161.29 329.25 153.2 420.74 153.2" style="fill:#dbdbdb"></polygon><rect x="492.9" width="1" height="109.1" style="fill:#c7c7c7"></rect><polygon points="539.14 153.2 535.47 161.29 451.32 161.29 447.65 153.2 483.48 128.41 503.32 128.41 539.14 153.2" style="fill:#ebebeb"></polygon><polygon points="505.81 104.52 503.32 128.41 483.48 128.41 480.99 104.52 505.81 104.52" style="fill:#dbdbdb"></polygon><polygon points="539.14 153.2 535.46 161.29 451.32 161.29 447.65 153.2 539.14 153.2" style="fill:#dbdbdb"></polygon><rect x="582.59" y="204.78" width="105.16" height="75.91" transform="translate(877.9 -392.43) rotate(90)" style="fill:#dbdbdb"></rect><rect x="592.51" y="214.71" width="85.31" height="56.06" transform="translate(877.9 -392.43) rotate(90)" style="fill:#fff"></rect><rect x="607.14" y="200.09" width="56.06" height="85.31" style="fill:#fff"></rect><g style="opacity:0.2"><polygon points="656.01 285.4 638.39 285.4 607.14 254.14 607.14 236.53 656.01 285.4" style="fill:#ebebeb"></polygon><polygon points="663.2 239.96 623.32 200.09 629.13 200.09 663.2 234.17 663.2 239.96" style="fill:#ebebeb"></polygon><polygon points="663.2 215.51 647.78 200.09 649.71 200.09 663.2 213.58 663.2 215.51" style="fill:#ebebeb"></polygon><polygon points="627.07 285.4 625.13 285.4 607.14 267.4 607.14 265.46 627.07 285.4" style="fill:#ebebeb"></polygon><polygon points="663.2 252.11 611.17 200.09 613.11 200.09 663.2 250.18 663.2 252.11" style="fill:#ebebeb"></polygon></g><rect x="607.14" y="200.09" width="4.04" height="85.31" style="fill:#c7c7c7"></rect><rect x="673.12" y="190.16" width="4.04" height="105.16" style="fill:#c7c7c7"></rect><rect x="582.59" y="78.16" width="105.16" height="75.91" transform="translate(751.28 -519.05) rotate(90)" style="fill:#dbdbdb"></rect><rect x="592.51" y="88.08" width="85.31" height="56.06" transform="translate(751.28 -519.05) rotate(90)" style="fill:#fff"></rect><g style="opacity:0.2"><polygon points="663.2 135.09 607.14 79.03 607.14 73.46 619.18 73.46 663.2 117.48 663.2 135.09" style="fill:#ebebeb"></polygon><polygon points="637.22 158.77 619.6 158.77 607.14 146.31 607.14 128.69 637.22 158.77" style="fill:#ebebeb"></polygon><polygon points="663.2 84.46 652.2 73.46 658 73.46 663.2 78.67 663.2 84.46" style="fill:#ebebeb"></polygon><polygon points="657.15 158.77 655.21 158.77 607.14 110.7 607.14 108.76 657.15 158.77" style="fill:#ebebeb"></polygon><polygon points="663.2 111.63 625.03 73.46 626.97 73.46 663.2 109.69 663.2 111.63" style="fill:#ebebeb"></polygon></g><rect x="607.14" y="73.46" width="4.04" height="85.31" style="fill:#c7c7c7"></rect><rect x="673.12" y="63.54" width="4.04" height="105.16" style="fill:#c7c7c7"></rect></g><g id="freepik--Plant--inject-146"><polygon points="122.12 166.77 95.15 42.31 70.23 166.76 69.04 166.58 95.11 36.45 123.3 166.58 122.12 166.77" style="fill:#dbdbdb"></polygon><polygon points="114.91 291.09 95.44 219.61 77.44 291.08 76.28 290.79 95.39 214.87 116.06 290.77 114.91 291.09" style="fill:#dbdbdb"></polygon><path d="M97.6,38.7a2.47,2.47,0,1,1-2.47-2.46A2.47,2.47,0,0,1,97.6,38.7Z" style="fill:#a6a6a6"></path><polygon points="121.75 299.06 120.86 310.72 118.75 338.48 74.03 338.48 71.92 310.72 71.03 299.06 121.75 299.06" style="fill:#FFC727"></polygon><polygon points="121.75 299.06 120.86 310.72 71.92 310.72 71.03 299.06 121.75 299.06" style="opacity:0.1"></polygon><rect x="67.97" y="295.32" width="56.85" height="9.06" style="fill:#FFC727"></rect><path d="M126.36,293.45a2.73,2.73,0,0,1-3,2.5,2.91,2.91,0,0,1-3.25.95,3.33,3.33,0,0,1-3.26,1.93,3.33,3.33,0,0,1-1.93,4,2.06,2.06,0,0,1-2.14,1.46,3.4,3.4,0,0,1-2.52-1.75,2.59,2.59,0,0,1-3.82.35,2.12,2.12,0,0,1-.45-2.32,1.93,1.93,0,0,1-.5-.32,3.23,3.23,0,0,1-.89-2.73,3.1,3.1,0,0,1-2.32,0,1.8,1.8,0,0,1-1.61,1.35,3.17,3.17,0,0,1-.54,2.85,3.33,3.33,0,0,1-2.91,1.09c.32,1.53.39,3.27-1,4.28a2.2,2.2,0,0,1-2.27.22,2.93,2.93,0,0,1-3.59,2.27,3.76,3.76,0,0,1-.35,2.75,2.55,2.55,0,0,1-1.91,1.23c0,1.49-.64,3.11-2.39,3.09A1.76,1.76,0,0,1,84,314.52a2.21,2.21,0,0,1-1.13-3.67,3.18,3.18,0,0,1,0-5,2.1,2.1,0,0,1,.08-3.09,2.85,2.85,0,0,1-1-2.23A3.12,3.12,0,0,1,83.6,298a1.35,1.35,0,0,1-.78-.79.86.86,0,0,1,0-.24,2.08,2.08,0,0,1-1.66.05,1.85,1.85,0,0,1-.81-.75,3.44,3.44,0,0,1-3.27.8,2.74,2.74,0,0,1-4.19.86c-1,.92-2.43,1.81-3.77,1a1.69,1.69,0,0,1-.76-1.51,1.86,1.86,0,0,1-1.69-1,1.74,1.74,0,0,1,.47-2.15,1.66,1.66,0,0,1-.64-1,2,2,0,0,1,1.92-2.18,2.71,2.71,0,0,1,.52-2.75,3.91,3.91,0,0,1,3.2-1.14,3.45,3.45,0,0,1,1.69-3.59,2.8,2.8,0,0,1,3.46.84,4.5,4.5,0,0,1,7.14-.46,2.22,2.22,0,0,1,2.78-1.14c1.54.57,2,2.14,2.09,3.65a4.39,4.39,0,0,1,4.46.36,4.46,4.46,0,0,1,1.71,3.7,3.91,3.91,0,0,1,4.17.25c1.18-1.43,2.55-3,4.44-3.39a4.21,4.21,0,0,1,3.62.76,5,5,0,0,1,9-1.14,3.49,3.49,0,0,1,3.68-.48c1.75.72,2.63,2.54,3.24,4.23A2.69,2.69,0,0,1,126.36,293.45Z" style="fill:#455a64"></path><polygon points="130.27 170.08 129.09 185.67 126.27 222.76 66.51 222.76 63.69 185.67 62.51 170.08 130.27 170.08" style="fill:#FFC727"></polygon><polygon points="130.27 170.08 129.09 185.67 63.69 185.67 62.51 170.08 130.27 170.08" style="opacity:0.1"></polygon><rect x="58.41" y="165.09" width="75.97" height="12.1" style="fill:#FFC727"></rect><path d="M132.64,168.14a4.44,4.44,0,0,1,.93,4.14,8.13,8.13,0,0,1-4.65,4.16,5,5,0,0,1-1.66,7.29c1.81,2.11,2.56,4.53.22,6.09a5.45,5.45,0,0,1-1.65,7.75c.51,1.68-1.1,6.69-4.54,6.68a3.62,3.62,0,0,1-3.14-5.36,4.25,4.25,0,0,1-1-6.72s-2.12.46-3.12-.62a2.92,2.92,0,0,1-.18-2.86,4.86,4.86,0,0,1,1.11-7.08,4,4,0,0,1-.06-6,5.57,5.57,0,0,1-2.36-2c-1.74.83-2.78.09-3.73-1.54a4,4,0,0,1-4.34,1.14,4.77,4.77,0,0,1-7,2.82,6.58,6.58,0,0,1-1.32,3.56,9.15,9.15,0,0,1-.79.86,6.92,6.92,0,0,0-.76,1.26A5.92,5.92,0,0,1,93,183.51c-1.15.8-3,1-4-.17a2.24,2.24,0,0,1-.36-2.34,3,3,0,0,1-1.9-3.84A3.72,3.72,0,0,1,83.19,175a3.89,3.89,0,0,1-3,1.49,4.39,4.39,0,0,1-2.49,5.53,4.5,4.5,0,0,1-1.94,6.42,3.18,3.18,0,0,1-.92,4.22,4,4,0,0,1-.16,3.63,2.61,2.61,0,0,1-2.46,1.17,1.94,1.94,0,0,1-1.18-2.89,4.91,4.91,0,0,1-1.76-8.07,4,4,0,0,1-2.35-6.08,3.93,3.93,0,0,1-2.27-6.39,2.4,2.4,0,0,1-2.17-.8,2.14,2.14,0,0,1-.44-1.37,3.09,3.09,0,0,1-3.34-1.46,3,3,0,0,1,.61-3.51,2.55,2.55,0,0,1-1.7-1.85,2.27,2.27,0,0,1,.19-1.53A3,3,0,0,1,54.26,161a2.41,2.41,0,0,1,1.62-2.52,2.93,2.93,0,0,1-.23-1.94c.45-1.84,2.58-2.4,4.27-2.61a3.8,3.8,0,0,1,4.23-5A3.91,3.91,0,0,1,66,145.36a3.7,3.7,0,0,1,4.1.32h.11a4.61,4.61,0,0,1,3.9,4.48,4.69,4.69,0,0,1,4.51,0,6.61,6.61,0,0,1,3.13,4.59,5.38,5.38,0,0,1,8.64,1.12,5.12,5.12,0,0,1,5.34-1.26,5.17,5.17,0,0,1,3.19,4.06,12.25,12.25,0,0,1,11.49-2.26,5.39,5.39,0,0,1,8.14-2.59,5.4,5.4,0,0,1,5.57-3.28c2.84.29,4.93,2.58,6.1,5a5.48,5.48,0,0,1,4.8,7.21A4,4,0,0,1,132.64,168.14Z" style="fill:#455a64"></path></g><g id="freepik--Chairs--inject-146"><polygon points="214.82 372.01 203.96 372.01 205.96 256.07 212.82 256.07 214.82 372.01" style="fill:#a6a6a6"></polygon><polygon points="319.8 372.01 308.94 372.01 310.94 256.07 317.8 256.07 319.8 372.01" style="fill:#a6a6a6"></polygon><rect x="197.17" y="259.76" width="126.83" height="66.76" style="fill:#dbdbdb"></rect><rect x="324.01" y="259.76" width="7.96" height="66.76" style="fill:#a6a6a6"></rect><path d="M212.39,296.06a3,3,0,1,1-3-3A3,3,0,0,1,212.39,296.06Z" style="fill:#a6a6a6"></path><path d="M317.37,296.06a3,3,0,1,1-3-3A3,3,0,0,1,317.37,296.06Z" style="fill:#a6a6a6"></path><polygon points="535.18 372.01 546.04 372.01 544.04 256.07 537.18 256.07 535.18 372.01" style="fill:#a6a6a6"></polygon><polygon points="430.2 372.01 441.06 372.01 439.06 256.07 432.2 256.07 430.2 372.01" style="fill:#a6a6a6"></polygon><rect x="425.99" y="259.76" width="126.83" height="66.76" transform="translate(978.82 586.29) rotate(180)" style="fill:#dbdbdb"></rect><rect x="418.04" y="259.76" width="7.96" height="66.76" transform="translate(844.03 586.29) rotate(180)" style="fill:#a6a6a6"></rect><path d="M537.61,296.06a3,3,0,1,0,3-3A3,3,0,0,0,537.61,296.06Z" style="fill:#a6a6a6"></path><path d="M432.63,296.06a3,3,0,1,0,3-3A3,3,0,0,0,432.63,296.06Z" style="fill:#a6a6a6"></path></g><g id="freepik--Shadows--inject-146"><ellipse cx="544.6" cy="393.76" rx="118.6" ry="21.89" style="fill:#ebebeb"></ellipse><ellipse cx="239.99" cy="393.76" rx="118.6" ry="21.89" style="fill:#ebebeb"></ellipse></g><g id="freepik--Table--inject-146"><polygon points="50.72 372.07 131.79 371.83 212.86 371.74 375 371.58 537.14 371.74 618.21 371.83 699.28 372.07 618.21 372.32 537.14 372.41 375 372.57 212.86 372.41 131.79 372.32 50.72 372.07" style="fill:#263238"></polygon></g><g id="freepik--character-2--inject-146"><path d="M536.79,134.75c-2.65.12-14-2.1-22.46,7.72-8,9.28-12.88,39.06-14.93,45.47s-10.7,6.72-13.31,14.14c-2.25,6.39,2.31,9.15,2.43,14,.09,3.74-4.08,9-1.13,14.76,2.69,5.24,8.19,4.61,11.34,6.42s4.59,9.55,10.48,12.07,11.68-2.59,14.89-2.3,6.25,10.43,16.8,10.39,14.27-8.68,18.73-10.09,15.09,2.46,20.48-2.56,6.8-12.17,9.24-14.66,7.08-1.69,10.34-7.62-2.16-10.29-2.55-15.69c-.27-3.76,3.3-6.91,1.42-12.77-2.58-8.06-12.26-7.14-15.28-15.44-2.36-6.51-6.14-34.31-22.13-42.33C550.11,130.7,536.79,134.75,536.79,134.75Z" style="fill:#263238"></path><path d="M499.84,186.39a9.33,9.33,0,0,1-3.08,3.29l-3.64,2.69a28,28,0,0,0-6.53,5.9,9.08,9.08,0,0,0-1.64,7.88,14,14,0,0,0,1.91,3.81,16.11,16.11,0,0,1,2.28,4.18,7.74,7.74,0,0,1-.81,4.89c-.6,1.42-1.25,2.76-1.77,4.13-1.07,2.7-1.51,5.63-.37,8.23a6.16,6.16,0,0,0,2.65,3.05,11.24,11.24,0,0,0,4.11,1.23c1.46.22,3,.29,4.48.43a7.59,7.59,0,0,1,4.29,1.34,7.93,7.93,0,0,0-4.32-.88c-1.5,0-3,.05-4.54-.05a12.26,12.26,0,0,1-4.54-1.11,7.47,7.47,0,0,1-3.34-3.46c-1.54-3-1-6.49.11-9.32.52-1.46,1.16-2.85,1.71-4.21a6.25,6.25,0,0,0,.67-3.84c-.71-2.46-3.24-4.81-4-8a10.14,10.14,0,0,1,2.1-9.1,28.69,28.69,0,0,1,7.11-5.8l3.85-2.36A10.2,10.2,0,0,0,499.84,186.39Z" style="fill:#263238"></path><path d="M575.22,152.85c2.5,4.83,3.88,10.1,5.74,15.13.94,2.51,1.79,5.06,2.9,7.46a18,18,0,0,0,1.9,3.34,2.79,2.79,0,0,0,.58.64,3.35,3.35,0,0,0,.68.53c.54.34,1.12.65,1.7,1a76.6,76.6,0,0,1,7.11,4,13.82,13.82,0,0,1,5.44,6.37,8.62,8.62,0,0,1,.51,4.27,11,11,0,0,1-1.54,3.91c-1.44,2.29-2.81,4.59-3.1,7.32-.12-2.74,1.18-5.35,2.36-7.72a10.27,10.27,0,0,0,1.2-3.64,7.42,7.42,0,0,0-.66-3.64,13.36,13.36,0,0,0-5.09-5.57,79.49,79.49,0,0,0-7-3.79c-.6-.33-1.21-.67-1.8-1.06a5.91,5.91,0,0,1-1.65-1.58,19.24,19.24,0,0,1-2-3.7,66.37,66.37,0,0,1-2.72-7.69l-2.19-7.8A69.45,69.45,0,0,0,575.22,152.85Z" style="fill:#263238"></path><path d="M592.05,228.47c-1.26,1.45-1.57,3.45-2.15,5.26s-1.1,3.71-1.75,5.55a28.31,28.31,0,0,1-2.45,5.39,12.8,12.8,0,0,1-4.21,4.46c-3.85,2.06-8.17,1.44-11.88.46-1.89-.5-3.72-1.1-5.57-1.56a12,12,0,0,0-5.65-.41,11.12,11.12,0,0,1,5.81-.41c1.93.29,3.82.75,5.7,1.09,3.68.68,7.65,1,10.73-.66a11.58,11.58,0,0,0,3.69-3.83,35.39,35.39,0,0,0,2.6-5c.79-1.75,1.47-3.55,2.19-5.34.38-.9.77-1.79,1.2-2.66A5.69,5.69,0,0,1,592.05,228.47Z" style="fill:#263238"></path><rect x="620.6" y="256.17" width="3.55" height="52.71" transform="translate(1295 404.01) rotate(165.82)" style="fill:#ebebeb"></rect><polygon points="610.62 316.3 648.77 306.66 628.62 307.24 610.62 316.3" style="fill:#ebebeb"></polygon><path d="M616.94,261c8.34-2.1,21.84-12.18,15.71-29.29s-11.08-21.21-13-30a31.32,31.32,0,0,1,.26-15.43l-41,10.35a31.22,31.22,0,0,1,7.56,13.45c2.43,8.66,0,14.62,2.75,32.59S608.6,263.12,616.94,261Z" style="fill:#ebebeb"></path><path d="M615.92,257c7.37-1.86,19.3-10.77,13.89-25.9s-10.71-18.51-12.44-26.26l0-.15A56.69,56.69,0,0,1,610,208c-4,1.38-13,.89-20.69,1.91.19.58.37,1.19.55,1.82,2.15,7.65-.89,13.15,1.53,29S608.55,258.84,615.92,257Z" style="fill:#FFC727"></path><path d="M566.44,237.37c37.09,38.88,83.21,120.13,74.09,136.29-10.16,18-63.65-37.34-62-40,1.42-2.25-17.06-51.18-30.48-87S557.26,227.75,566.44,237.37Z" style="fill:#f7a9a0"></path><path d="M611.89,284l-53.27,9.59s-13.29-37.74-15.93-58.69c-1.48-11.75,5.42-12.23,14.11-6C587.19,250.73,611.89,284,611.89,284Z" style="fill:#FFC727"></path><path d="M569.24,250.94a21.51,21.51,0,0,0-2.82,4.76,21.58,21.58,0,0,0,3.8-4,22.15,22.15,0,0,0,2.82-4.75A23.64,23.64,0,0,0,569.24,250.94ZM564,278.79a22.11,22.11,0,0,0-4.75-2.81,20.48,20.48,0,0,0,4,3.83,21.79,21.79,0,0,0,4.76,2.81A22,22,0,0,0,564,278.79Zm33.48-6a21.24,21.24,0,0,0-1.36-5.35,20.78,20.78,0,0,0,.13,5.52,22.32,22.32,0,0,0,1.37,5.34A20.26,20.26,0,0,0,597.47,272.79Z" style="fill:#fff"></path><path d="M559,284.85c8.08-2.15,30.14-7.36,44.92-8.87.09,0,.17.32.08.34-12.11,3.11-36.66,7.58-44.89,9C558.93,285.37,558.82,284.89,559,284.85Z" style="fill:#263238"></path><path d="M604.75,285.27l-46.13,8.3s-13.29-37.74-15.93-58.69c-1-7.52,1.55-10.42,5.74-9.9Z" style="opacity:0.1"></path><path d="M588.07,372.07h-135s12.28-94.17,55.77-143.69c11.73-13.36,33-9.41,43.07-.37a93.61,93.61,0,0,1,9.79,11.13c9.14,11.74,24.08,40,25.47,47.59,2.31,12.61-8.85,26.24-8.85,26.24Z" style="fill:#FFC727"></path><path d="M588.56,286c-1.25-5.2-4.14-10-6.68-14.61-2.69-4.91-5.5-9.74-8.4-14.53-.1-.17-.2-.34-.31-.51-.48-1.53-1.17-3-1.75-4.51-.75-1.9-1.55-3.78-2.29-5.69a.06.06,0,0,0-.11,0c.61,2,1.21,4,1.93,5.92.19.5.37,1,.56,1.52q-1.46-2.4-3-4.77c-1.71-2.69-3.52-5.31-5.25-8,0-.07-.14,0-.1.06,2.76,4.71,5.41,9.49,8.16,14.2s5.44,9.46,8,14.26c1.27,2.39,2.51,4.79,3.7,7.22a58.75,58.75,0,0,1,3.1,7,22.69,22.69,0,0,1,.1,14.45c-1.66,5.32-4.62,10.15-7.44,14.92-.11.19.19.42.33.23C585.05,305.52,591,296.24,588.56,286Z" style="fill:#263238"></path><path d="M563.53,311.55a21.86,21.86,0,0,0-1.4-5.36,22.47,22.47,0,0,0,.17,5.51,21,21,0,0,0,1.37,5.36A23.58,23.58,0,0,0,563.53,311.55ZM460.34,339.38c-.12-.8-.27-1.59-.45-2.38-.24,1-.49,2.05-.72,3.05a21.36,21.36,0,0,0,1.3,4.85A23.06,23.06,0,0,0,460.34,339.38Zm64.78,24.31a21.81,21.81,0,0,0-1.38-5.36,23.09,23.09,0,0,0,.13,5.52,21.22,21.22,0,0,0,1.4,5.35A23.07,23.07,0,0,0,525.12,363.69ZM540,252.11a21.43,21.43,0,0,0-1.36-5.36,20.74,20.74,0,0,0,.13,5.52,22.24,22.24,0,0,0,1.37,5.36A20.33,20.33,0,0,0,540,252.11ZM500.13,297a21.07,21.07,0,0,0-1.36-5.34,20.71,20.71,0,0,0,.14,5.51,22.61,22.61,0,0,0,1.36,5.35A21.64,21.64,0,0,0,500.13,297Zm33,11.87a20.83,20.83,0,0,0-5.35,1.36,22.18,22.18,0,0,0,5.52-.14,22.73,22.73,0,0,0,5.35-1.36A20.33,20.33,0,0,0,533.16,308.9Zm-45.31-43a25.18,25.18,0,0,0-3.7.8l-.33.7a27,27,0,0,0,4.22-.27,20.82,20.82,0,0,0,5.32-1.36A23.06,23.06,0,0,0,487.85,265.93Zm80.81,93.47a21.8,21.8,0,0,0-5.35,1.36,22.08,22.08,0,0,0,5.52-.13,22.85,22.85,0,0,0,5.35-1.36A20.41,20.41,0,0,0,568.66,359.4Zm-84.23-37.21a22.15,22.15,0,0,0-5.35,1.37,20.82,20.82,0,0,0,5.52-.14,21.8,21.8,0,0,0,5.35-1.36A21.17,21.17,0,0,0,484.43,322.19Zm61.73,18a22.64,22.64,0,0,0-4.75-2.82,20.19,20.19,0,0,0,4,3.8,21,21,0,0,0,4.75,2.81A22,22,0,0,0,546.16,340.17ZM489.38,351a22.22,22.22,0,0,0-4.76-2.82,21.24,21.24,0,0,0,4,3.83,22.53,22.53,0,0,0,4.75,2.81A21.14,21.14,0,0,0,489.38,351Zm-15.05-53.13c-.8-.57-1.6-1.14-2.46-1.64-.12.32-.23.64-.34.95.66.6,1.35,1.16,2.06,1.7a22.56,22.56,0,0,0,4.75,2.82A22.3,22.3,0,0,0,474.33,297.88ZM564,278.79a22.11,22.11,0,0,0-4.75-2.81,20.48,20.48,0,0,0,4,3.83,21.79,21.79,0,0,0,4.76,2.81A22,22,0,0,0,564,278.79Zm-58.06-36.54a22.64,22.64,0,0,0-4.75-2.82,22.56,22.56,0,0,0,4,3.81,21.63,21.63,0,0,0,4.75,2.81A21.79,21.79,0,0,0,505.93,242.25Zm32-21.38c-.8-.2-1.6-.39-2.41-.53a18.08,18.08,0,0,0,4,2.27A20.36,20.36,0,0,0,537.93,220.87Zm47.29,73.33a22.11,22.11,0,0,0-2.81,4.75,22,22,0,0,0,3.82-4c.36-.49.71-1,1-1.48q.13-.92.18-1.86A30.58,30.58,0,0,0,585.22,294.2Zm-72.71,35.07a21.63,21.63,0,0,0-2.79,4.75,24.38,24.38,0,0,0,6.62-8.76A21.34,21.34,0,0,0,512.51,329.27Zm69.85,8.15a20,20,0,0,0-2.49,4.31,19.53,19.53,0,0,0,2.76-2.69Zm-123.9,28a21,21,0,0,0-2.81,4.75,20,20,0,0,0,3.79-4,21,21,0,0,0,2.81-4.75A22.11,22.11,0,0,0,458.46,365.38Zm64.76-84.82a20.8,20.8,0,0,0-2.81,4.76,22.42,22.42,0,0,0,3.79-4,22,22,0,0,0,2.81-4.76A23.13,23.13,0,0,0,523.22,280.56Zm46.24-29.9c-.07.09-.14.19-.22.28a21.51,21.51,0,0,0-2.82,4.76,21.21,21.21,0,0,0,3.72-3.93C569.93,251.39,569.69,251,569.46,250.66Z" style="fill:#fff"></path><path d="M640.53,373.66c-8.69,12-31.85,13.94-89.71,24.27-8,1.43-33.29-52.36-24.82-54.32,10.67-2.48,52.61-9.78,55.74-9.92C608.18,332.45,646.43,365.52,640.53,373.66Z" style="fill:#f7a9a0"></path><path d="M537.58,341.17s-24.5,3.28-36.83,9c-16.52,7.64-27.63,21-31.95,26.94-9,12.31-22.29,48.3-12.59,53.93,8.77,5.1,20.49-32.37,20.49-32.37s-18.25,36.23-6.55,40.43S493,399,493,399s-17.92,37.65-5.17,40.07c9.63,1.83,22-37.7,22-37.7s-15.18,32.47-5.35,34.78c10.86,2.55,24.54-33.23,24.54-33.23,26,1.66,39-8.17,47.46-16.27C578.47,384.7,537.58,341.17,537.58,341.17Z" style="fill:#f7a9a0"></path><path d="M482.21,385.72c-2.29,4.18-4.65,8.39-6.57,12.76s-3.69,8.81-5.19,13.34c-3.69,11.1-4.26,18.63-4.17,18.17,2-10.91,8.66-26.65,10.58-31s3.61-8.82,5.52-13.18C482.43,385.68,482.27,385.62,482.21,385.72Z" style="fill:#263238"></path><path d="M498.11,392.36c-2.7,5.46-5.58,10.79-8.05,16.37s-4.29,11-6.35,16.76c-.16.44.13.38.31-.06,2.29-5.62,4.84-10.64,7.19-16.24s4.49-11.29,7-16.77C498.29,392.33,498.16,392.28,498.11,392.36Z" style="fill:#263238"></path><path d="M512.79,395.61c-4.56,8.14-7.62,17.1-10.4,26-.14.44.23.33.39-.12,3.3-8.7,5.82-15.54,10.29-25.69C513.14,395.61,512.88,395.44,512.79,395.61Z" style="fill:#263238"></path><path d="M607.27,340.17c-3.85-2.44-14.74-8.16-25.45-6.57a.09.09,0,1,0,0,.18c8.82,0,21.43,4.49,25.36,6.54C607.29,340.38,607.37,340.23,607.27,340.17Z" style="fill:#263238"></path><path d="M495.12,245.05c-17.59,28.79-47.09,90.23-35.77,112.82,10.91,21.75,99.06-9.68,116.65-16.14,7.22-2.66-3-62.38-11-60.52-17.58,4.11-54.92,21.9-55.74,21.34s4.47-26.42,8.7-52.07C524.08,213.15,507.77,224.35,495.12,245.05Z" style="fill:#f7a9a0"></path><path d="M643.83,275.19c2.36,6.88-4.78,9.21-4.78,9.21a13.63,13.63,0,0,1,6,7c1.75,5.32-5.83,10.39-5.83,10.39a16.75,16.75,0,0,1,5.2,8.4c1.16,5.26-5.75,11.47-5.75,11.47a14.68,14.68,0,0,1-.09,10.26c-3.71,8.67-17.94,11-27,12.38-13.45,2.08-36.08-2.73-41.32-3l-10.1-57.94s38.67-17.58,49.51-18.49C620.79,263.93,641.51,268.42,643.83,275.19Z" style="fill:#f7a9a0"></path><path d="M638.49,283.54c-9.8-2.11-19.69-1.22-29.61-.88a.17.17,0,0,0,0,.34c9.87-.45,19.69,1.07,29.55,1A.24.24,0,0,0,638.49,283.54Z" style="fill:#263238"></path><path d="M639,301.07a26.13,26.13,0,0,0-6.84.1c-2.41.2-4.82.45-7.22.73q-7.23.84-14.4,2.05c-.21,0-.21.37,0,.34,4.8-.55,9.61-1,14.43-1.38,2.41-.18,4.83-.33,7.24-.47a30.91,30.91,0,0,0,6.8-.71A.35.35,0,0,0,639,301.07Z" style="fill:#263238"></path><path d="M638.5,321.68c-1.92-.44-4.21.15-6.14.42l-6.57.87c-4.39.55-8.77,1.11-13.17,1.51a.18.18,0,0,0,0,.35c4.47-.39,9-.72,13.42-1.15,2.19-.2,4.38-.43,6.57-.66,1.87-.2,4.22-.23,5.91-1.13C638.64,321.85,638.6,321.7,638.5,321.68Z" style="fill:#263238"></path><path d="M509.25,302.19a58.26,58.26,0,0,0-8.08,7.81,102.15,102.15,0,0,0-6.69,8.53c0,.06.14.13.19.06,2.32-2.78,5-5.42,7.5-8.12s5.31-5.25,7.63-8C510,302.27,509.45,302,509.25,302.19Z" style="fill:#263238"></path><path d="M633,338.31c-7.08,3.65-15.17,5.14-23.06,5.52-8.74.41-35.37-2.59-35.51-2.53-3,1.31-6,2.5-9,3.72s-5.88,2.32-8.84,3.41q-9,3.31-18.22,6a298.47,298.47,0,0,1-37.27,8.2c-3.51.55-7,1-10.55,1.51s-7.2,1-10.82,1.22c-.1,0-.1.16,0,.15,3.22-.22,6.46-.31,9.69-.48s6.36-.5,9.53-.88c6.37-.76,12.71-1.82,19-3.1a265.56,265.56,0,0,0,36.94-10.32q5.1-1.85,10.14-3.91c3.34-1.37,6.6-2.88,9.88-4.39.23-.11,20.06,2.4,24.2,2.71,7.61.57,15.37.44,22.77-1.6a41,41,0,0,0,11.26-4.95A.17.17,0,0,0,633,338.31Z" style="fill:#263238"></path><path d="M459.76,291.91l54.09,1.86s7.75-39.25,7.36-60.37c-.22-11.84-7.12-11.32-14.82-3.9C479.44,255.47,459.76,291.91,459.76,291.91Z" style="fill:#FFC727"></path><path d="M505.93,242.25a22.64,22.64,0,0,0-4.75-2.82,22.56,22.56,0,0,0,4,3.81,21.63,21.63,0,0,0,4.75,2.81A21.79,21.79,0,0,0,505.93,242.25Zm-18.08,23.68a21.78,21.78,0,0,0-5.35,1.4,22.3,22.3,0,0,0,5.54-.17,20.82,20.82,0,0,0,5.32-1.36A23.06,23.06,0,0,0,487.85,265.93Zm10.92,25.76c-.06.53-.11,1.05-.12,1.56l.69,0A13.74,13.74,0,0,0,498.77,291.69Z" style="fill:#fff"></path><path d="M512.25,285.19c-8.3-1-30.88-3-45.72-2.35-.09,0-.12.34,0,.35,12.43,1.35,37.36,2.25,45.71,2.51C512.37,285.7,512.41,285.21,512.25,285.19Z" style="fill:#263238"></path><path d="M521.17,253.55c-.62,2.34-1.2,4.69-1.77,7,0-.29.07-.57.1-.86.34-3.28.66-6.57.9-9.87,0-.07-.13-.09-.14,0-1.61,11.49-6.15,40.54-6.42,43.72-.25,0-2.72.06-3.29,0a.1.1,0,0,0,0,.19c.3,0,4,.48,4,.4,1.61-5.6,4.06-26.77,4.59-31.46.83-3,1.53-6.07,2.07-9.16C521.24,253.53,521.18,253.51,521.17,253.55Z" style="fill:#263238"></path><path d="M525,224.86c.79,2.17,13.11,15.35,23.23,13.67,3.29-.55,1.08-18.66,1.08-18.66l.14-1.37,2-19.23-23.69-11.53-3.4-1.49s-.19,5.3-.37,11.9c0,.3,0,.61,0,.94s-.05.72-.05,1.07c0,1-.07,2-.09,3,0,.77,0,1.51,0,2.31s0,1.59,0,2.4C523.91,215.8,524.68,223.94,525,224.86Z" style="fill:#f7a9a0"></path><path d="M524,198.15a38.78,38.78,0,0,0,25.48,20.35l2-19.23-23.69-11.53-3.4-1.49S524.15,191.55,524,198.15Z" style="fill:#263238"></path><path d="M578.93,175.59c.58,33.93-19.68,38.11-27,38.23-6.64.1-29.27-.38-33.35-34.07s11.51-44.69,26.69-45.73S578.35,141.66,578.93,175.59Z" style="fill:#f7a9a0"></path><path d="M572.22,167.79a22.11,22.11,0,0,1-2.27-.56,3.87,3.87,0,0,1-2.22-1,1.2,1.2,0,0,1,.06-1.47,3,3,0,0,1,3-.6,4.42,4.42,0,0,1,2.71,1.65A1.29,1.29,0,0,1,572.22,167.79Z" style="fill:#263238"></path><path d="M550.71,167.22a22.76,22.76,0,0,0,2.31-.4,3.8,3.8,0,0,0,2.27-.87,1.2,1.2,0,0,0,.05-1.47,3,3,0,0,0-2.92-.8,4.44,4.44,0,0,0-2.82,1.46A1.29,1.29,0,0,0,550.71,167.22Z" style="fill:#263238"></path><path d="M554.94,175.93c0-.09-.19.11-.18.21,0,2.31-.29,5-2.39,5.71-.06,0-.06.14,0,.13C555,181.64,555.35,178.11,554.94,175.93Z" style="fill:#263238"></path><path d="M552.9,173.5c-3.71-.32-4.08,7.13-.64,7.42S556,173.77,552.9,173.5Z" style="fill:#263238"></path><path d="M551.42,173.82c-.68.39-1.35,1.1-2.14,1.14s-1.56-.77-2.11-1.55c-.06-.08-.13,0-.13.08-.1,1.43.38,2.92,1.9,3.21s2.45-.95,2.88-2.37C551.9,174.07,551.69,173.66,551.42,173.82Z" style="fill:#263238"></path><path d="M568,175.59c0-.09.18.12.17.21-.21,2.3-.06,5,2,5.86.06,0,0,.15,0,.13C567.56,181.29,567.4,177.74,568,175.59Z" style="fill:#263238"></path><path d="M570.16,173.3c3.73-.07,3.59,7.39.14,7.45S567,173.35,570.16,173.3Z" style="fill:#263238"></path><path d="M571.71,173.82c.58.4,1.15,1.13,1.85,1.19s1.44-.73,2-1.49c.06-.08.11,0,.11.08,0,1.43-.48,2.91-1.86,3.15s-2.14-1-2.46-2.44C571.26,174.05,571.47,173.65,571.71,173.82Z" style="fill:#263238"></path><path d="M553,194.35c.5.59,1,1.38,1.81,1.53a6.28,6.28,0,0,0,2.53-.34.08.08,0,0,1,.08.13,3.13,3.13,0,0,1-3,1,2.45,2.45,0,0,1-1.62-2.21C552.75,194.29,552.93,194.26,553,194.35Z" style="fill:#263238"></path><path d="M564,186s.35,3.48.29,5.12a8.83,8.83,0,0,1-8.47-3c-.12-.15.11-.32.26-.22a11.66,11.66,0,0,0,7,2.3c.14-.44-.79-5.94-.53-5.95a14.32,14.32,0,0,1,3.68,1c-.52-7.28-2.19-14.41-2.6-21.66,0-.26.37-.33.43-.09,2.29,7.35,3.07,15.71,3.79,23.21C568,187.69,564.68,186.33,564,186Z" style="fill:#263238"></path><path d="M562.1,190.89a8.48,8.48,0,0,1-3.52,2.43,3.9,3.9,0,0,1-2.32,0c-1.64-.53-1.59-2.06-1.22-3.36a9.2,9.2,0,0,1,.86-2A10.94,10.94,0,0,0,562.1,190.89Z" style="fill:#263238"></path><path d="M558.58,193.32a3.9,3.9,0,0,1-2.32,0c-1.64-.53-1.59-2.06-1.22-3.36C556.82,190.26,558.52,191.57,558.58,193.32Z" style="fill:#ff9abb"></path><path d="M562.51,142.69s.22,5.23-2.26,8.43c-5.11,6.58-13.54,2.72-17.19,5-3.43,2.1-3.67,8-6.83,10.12-4.37,3-8.89.49-10,2.9s-4.58,10.12-8,10.45-6.62-56.65,35.31-45.77c0,0,6.32-1.11,14.34,5.38S578.13,164,578.13,164a10.28,10.28,0,0,1-2-2.2c-1.65-2.24-2.08-4.08-3.32-5.57-1.95-2.34-3.39-1.93-5.45-4.24C564.19,148.42,562.51,142.69,562.51,142.69Z" style="fill:#263238"></path><path d="M562.37,140.21a29.1,29.1,0,0,1-.17,6.73,12.13,12.13,0,0,1-2.27,6.09,9,9,0,0,1-5.67,2.72c-2.18.31-4.44,0-6.79.43a6.77,6.77,0,0,0-3.3,1.51,9.19,9.19,0,0,0-1.95,3c-.92,2.07-1.85,4.11-3.62,5.35a7.52,7.52,0,0,1-6.19,1.15c-2.13-.46-4.36-1.57-6.64-1.09,2.32-.3,4.32.94,6.51,1.59a8.15,8.15,0,0,0,6.78-1c2.09-1.29,3.1-3.63,4-5.61a8.3,8.3,0,0,1,1.76-2.64,5.74,5.74,0,0,1,2.81-1.22c2.12-.4,4.42-.17,6.73-.51a11.78,11.78,0,0,0,3.37-1,7,7,0,0,0,2.82-2.17,12.71,12.71,0,0,0,2.14-6.55A29.07,29.07,0,0,0,562.37,140.21Z" style="fill:#263238"></path><path d="M562.76,142.31a23.79,23.79,0,0,0,.78,6.27,11.08,11.08,0,0,0,3.23,5.59,16.08,16.08,0,0,0,2.68,1.77,5.12,5.12,0,0,1,1.95,2,16,16,0,0,0,1.3,2.89A7,7,0,0,0,575,163a8,8,0,0,1-1.89-2.41,16.51,16.51,0,0,1-1-2.93A5.49,5.49,0,0,0,570,155.1a17.62,17.62,0,0,1-2.52-1.72,11.82,11.82,0,0,1-3.12-5A48,48,0,0,1,562.76,142.31Z" style="fill:#263238"></path><path d="M524.18,181.14s-6.65-11.08-11.63-8.78-.49,18,5,20.49a5.74,5.74,0,0,0,7.89-2.54Z" style="fill:#f7a9a0"></path><path d="M514,176.83c-.09,0-.12.11,0,.15,3.83,1.87,5.66,5.68,6.85,9.57-1.08-1.54-2.62-2.45-4.67-1.19-.11.06,0,.23.09.22a3.51,3.51,0,0,1,3.79,1.5,16.87,16.87,0,0,1,1.64,3.26c.16.37.81.22.7-.19a.44.44,0,0,1,0-.1C522.74,185,519.31,177.71,514,176.83Z" style="fill:#263238"></path><path d="M520.94,191.58a1.37,1.37,0,1,1-1.16-1.57A1.38,1.38,0,0,1,520.94,191.58Z" style="fill:#fff"></path><path d="M517.91,188.86a1,1,0,1,1-.84-1.13A1,1,0,0,1,517.91,188.86Z" style="fill:#fff"></path><path d="M511.9,176.16l-2-.47a.72.72,0,0,1-.54-.87h0a.72.72,0,0,1,.87-.54l2,.47a.72.72,0,0,1,.54.87h0A.72.72,0,0,1,511.9,176.16Z" style="fill:#FFC727"></path><path d="M511.67,178.27l-2.05,0a.71.71,0,0,1-.71-.74h0a.73.73,0,0,1,.74-.71l2.05,0a.71.71,0,0,1,.71.73h0A.73.73,0,0,1,511.67,178.27Z" style="fill:#FFC727"></path><path d="M510.46,226.18a31.29,31.29,0,0,1,22.21-7.36,41.22,41.22,0,0,1,22.67,9.08s6.89,14.92-5,16.12C533.68,245.69,510.46,226.18,510.46,226.18Z" style="fill:#f7a9a0"></path></g><g id="freepik--character-1--inject-146"><path d="M204,241.34c-34.91,35.39-78.82,109.81-70.63,124.9,9.12,16.8,57.72-32.79,57.53-35.69-.14-2.19,17-47.4,29.93-80.28S212.63,232.59,204,241.34Z" style="fill:#ad6359"></path><path d="M191.23,330.6c1.49-4.83,24.75-64.44,31.4-83.3s.49-24.68-18.51-7.42S143.5,314.83,134,345.45c-9.15,29.49,6,29.49,26.07,15.89C176.46,350.21,191.23,330.6,191.23,330.6Z" style="fill:#37474f"></path><path d="M222.63,247.31c-6.65,18.85-29.91,78.46-31.4,83.29A178,178,0,0,1,169.44,354l52.28-124.36C226.07,230.26,226.36,236.73,222.63,247.31Z" style="fill:#263238"></path><path d="M192.61,372.08H325.32s-21.1-104.09-72-149.14c-6.29-5.57-23.39-3.36-33,3.76-3,2.19-11.87,14.78-15.25,30.48S192.24,371.61,192.61,372.08Z" style="fill:#c7c7c7"></path><path d="M216,232.64a.06.06,0,0,1,.11,0c0,6.15.32,20.37,10.57,19,4.13-.57,7.77-3.18,10.79-5.71a56.11,56.11,0,0,0,8.24-8.72,78.74,78.74,0,0,0,7.49-11c.09-.17.34,0,.27.15a59.05,59.05,0,0,1-6.64,11.54,47.91,47.91,0,0,1-8.87,9.64c-3.24,2.6-7.12,5.23-11.51,5.63a8.37,8.37,0,0,1-8.81-5.4C215.75,243.07,215.5,237.53,216,232.64Z" style="fill:#263238"></path><path d="M215.43,276.8c0,7.5.16,95.28.16,95.28h-23c-.37-.47,8.64-99.88,12.18-115.52,2.78-12.29,6.67-17.92,10.87-24.5C215.26,247.56,215.43,269.14,215.43,276.8Z" style="fill:#37474f"></path><path d="M325.32,372.08H262.41c-.47-2.37-18.5-71.06-19.33-78.94-1.59-15.09,7.4-54.21,8.38-71.54a11.1,11.1,0,0,1,1.87,1.34C304.22,268,325.32,372.08,325.32,372.08Z" style="fill:#37474f"></path><path d="M203.88,263.67c-1,3.5-1.9,7.14-2.6,10.79,0-.14,0-.28,0-.42-.06-2.05-.07-4.14-.29-6.18,0-.11-.18-.14-.2,0a31.63,31.63,0,0,0-.17,6.23c.05,1,.11,2,.2,2.94-.28,1.64-.53,3.28-.74,4.9-.39,3.1-2.1,28.93-2.19,31.22,0,.48.54.56.67.06.63-2.32,3-28.5,3.48-31.56a169,169,0,0,0,2.1-17.94C204.13,263.55,203.92,263.55,203.88,263.67Z" style="fill:#263238"></path><path d="M133.37,366.24c7.85,11.24,29.24,13.38,82.59,23.83,7.38,1.44,31.6-47.9,23.79-49.85-9.83-2.46-48.5-9.86-51.4-10C163.92,328.63,128,358.62,133.37,366.24Z" style="fill:#ad6359"></path><path d="M229.08,337.78s22.6,3.42,33.92,8.89c15.15,7.32,25.22,19.89,29.12,25.41,8.15,11.52,19.87,45,10.82,50.06-8.2,4.58-18.46-30.25-18.46-30.25s16.32,33.79,5.44,37.49S269.43,392,269.43,392s16,35.09,4.16,37.13c-8.94,1.54-19.74-35.2-19.74-35.2s13.54,30.26,4.41,32.24C248.18,428.33,236.08,395,236.08,395c-24,1.14-36-8.16-43.63-15.78C190.59,377.41,229.08,337.78,229.08,337.78Z" style="fill:#ad6359"></path><path d="M279.59,379.84c2.06,3.9,4.17,7.83,5.88,11.9s3.27,8.21,4.59,12.42c3.24,10.32,3.65,17.3,3.58,16.87-1.71-10.12-7.6-24.79-9.3-28.86s-3.21-8.21-4.91-12.27C279.39,379.8,279.54,379.75,279.59,379.84Z" style="fill:#263238"></path><path d="M264.78,385.74c2.42,5.09,5,10.06,7.19,15.26s3.8,10.28,5.62,15.59c.14.41-.13.35-.28,0-2-5.24-4.31-9.92-6.4-15.14s-4-10.5-6.25-15.62C264.62,385.7,264.74,385.66,264.78,385.74Z" style="fill:#263238"></path><path d="M251.16,388.51c4.09,7.6,6.78,15.94,9.21,24.18.13.41-.21.3-.36-.11-2.91-8.1-5.13-14.47-9.11-23.93C250.84,388.51,251.08,388.35,251.16,388.51Z" style="fill:#263238"></path><path d="M233.8,337.78l-46.74,52.05s-47.26-10.85-54.22-23c-4.59-8,31-40.3,57.86-36.53Z" style="fill:#37474f"></path><path d="M158.65,338.8c4.33-3.14,16.53-10.46,32.08-8.51.14,0,.14.24,0,.23-11.72-.33-27.55,5.8-32,8.47C158.64,339.06,158.54,338.88,158.65,338.8Z" style="fill:#263238"></path><path d="M174.28,381.12c4.83-6,10-11.74,15.14-17.46s10.33-11.45,15.64-17.05c3-3.16,6-6.34,9.09-9.4.08-.08.24,0,.16.13-4.82,6-9.95,11.75-15.07,17.5S188.92,366.31,183.68,372c-3,3.2-6,6.34-9.1,9.4C174.43,381.51,174.14,381.29,174.28,381.12Z" style="fill:#263238"></path><path d="M233.88,337.11a66.94,66.94,0,0,0-8.76-2c-3-.55-5.91-1.05-8.87-1.53C210.36,332.64,198,330,187.1,330c-.12,0,.5.59.62.58,5.18-.28,42.3,7.11,45.35,7.32a4.59,4.59,0,0,0-.33.62c-.06.15.09.35.25.24.38-.26.65-.58,1-.86A.43.43,0,0,0,233.88,337.11Z" style="fill:#263238"></path><path d="M226.6,247c8.15.72,19.92-13.3,23.84-23.84.26-.72-1.79-7.63-3.89-16.13-1.25-5.17-2.53-11-3.31-16.31-.16-1.1-32.43,13.07-32.43,13.07s4.94,10.76,6.25,20.11a12.13,12.13,0,0,1,.09,2.23,2.53,2.53,0,0,0,0,.38C217.08,230.74,218.72,246.27,226.6,247Z" style="fill:#ad6359"></path><path d="M220.63,226.14a20,20,0,0,1-3.47.32c0-.14,0-.26,0-.37a11.31,11.31,0,0,0-.09-2.23c-1.31-9.35-6.25-20.1-6.25-20.1s26.2-11.51,31.5-13C242.18,197.12,240.4,222.81,220.63,226.14Z" style="fill:#263238"></path><path d="M234,150c7.25,10.3,12.06,45.35,6.33,55.39-8.29,14.57-27.28,21.93-41,10.72-13.31-10.87-18.77-56.66-11.87-66.34C197.59,135.47,223.29,134.74,234,150Z" style="fill:#ad6359"></path><path d="M208.22,181.31c0-.09.2.08.21.18.26,2.37,1,5,3.2,5.52.07,0,.08.14,0,.14C209,187.15,208.08,183.59,208.22,181.31Z" style="fill:#263238"></path><path d="M210,178.54c3.76-.82,5.14,6.75,1.66,7.51S206.83,179.24,210,178.54Z" style="fill:#263238"></path><path d="M194.68,183.1c0-.09-.17.14-.15.24.51,2.33.69,5.08-1.29,6.25-.06,0,0,.15,0,.12C195.8,188.88,195.53,185.22,194.68,183.1Z" style="fill:#263238"></path><path d="M192.14,181c-3.83.4-2.74,8,.8,7.64S195.34,180.69,192.14,181Z" style="fill:#263238"></path><path d="M212.33,173.53a30.28,30.28,0,0,1-3.16,0,5.17,5.17,0,0,1-3.22-.62,1.64,1.64,0,0,1-.41-1.95c.75-1.34,2.24-1.69,3.7-1.74a6,6,0,0,1,4.07,1.29A1.74,1.74,0,0,1,212.33,173.53Z" style="fill:#263238"></path><path d="M188.52,177.75a27.47,27.47,0,0,0,2.86-1.33,5.09,5.09,0,0,0,2.67-1.91,1.64,1.64,0,0,0-.45-1.93c-1.25-.91-2.74-.61-4.09,0a5.88,5.88,0,0,0-3.15,2.88A1.73,1.73,0,0,0,188.52,177.75Z" style="fill:#263238"></path><path d="M214.83,201.79c-.46.65-.89,1.51-1.72,1.73a6.15,6.15,0,0,1-2.63-.13.08.08,0,0,0-.08.14,3.2,3.2,0,0,0,3.21.73,2.54,2.54,0,0,0,1.46-2.41C215.08,201.71,214.89,201.69,214.83,201.79Z" style="fill:#263238"></path><path d="M211.08,195.22a8.08,8.08,0,0,1-4.68,4.52,9.78,9.78,0,0,1-2.84.65,2.74,2.74,0,0,1-.56,0l-.53,0a.61.61,0,0,1-.57-.44v0a1,1,0,0,1,0-.24v0l0-.21c-.38-1.79-.7-4.57-.7-4.57-.6.45-3.69,2.57-3.81,1.62-1-7.89-2-16.67-1.3-24.72a.22.22,0,0,1,.44,0c1.22,7.55,1.1,15.26,2.2,22.86a14.71,14.71,0,0,1,3.56-1.83c.27,0,.54,5.38.77,6.17a.78.78,0,0,0,0,.09c3.1-.17,5.22-1.5,7.8-4.07C211,194.88,211.19,195,211.08,195.22Z" style="fill:#263238"></path><path d="M246.17,175.94c-9,3.28-16.9-6.26-17.28-15.66,0,0-23.41,10.24-30.21-9a20,20,0,0,1-13.29,13.33l-.65,8c-2.7,0-7.4-6.33-2.9-13.65,0,0-2.39-9.87,3.11-17.78a13.86,13.86,0,0,1,13.74-6.13,20.91,20.91,0,0,1,13.63-7.84c9.3-1.44,15.34,5.67,15.34,5.67s12.72-1.17,17.25,6.81a18.49,18.49,0,0,1,1.75,15s4,2.49,4.56,10.24C251.59,169.93,248.86,175,246.17,175.94Z" style="fill:#263238"></path><path d="M198.72,149.43a24.14,24.14,0,0,0,1.32,4.78,20.38,20.38,0,0,0,2.21,4.37,12.81,12.81,0,0,0,7.66,5.38c3.11.93,6.43.26,9.62-.33,1.57-.5,3.18-.9,4.72-1.49s3.07-1.27,4.64-1.86c-1.45.83-2.94,1.59-4.42,2.39s-3.13,1.21-4.7,1.83c-3.25.8-6.72,1.5-10.14.6a13.38,13.38,0,0,1-8.13-6A20.2,20.2,0,0,1,198.72,149.43Z" style="fill:#263238"></path><path d="M227.66,132.9a23.75,23.75,0,0,1,9.54-.64,14.13,14.13,0,0,1,8.62,4.37,15.28,15.28,0,0,1,2.47,4.25,14.15,14.15,0,0,1,1.12,4.75,13.13,13.13,0,0,1-2.75,9.07,14.42,14.42,0,0,0,1.85-9,16.08,16.08,0,0,0-3.57-8.31,12,12,0,0,0-3.54-2.78,17.92,17.92,0,0,0-4.36-1.47A29.75,29.75,0,0,0,227.66,132.9Z" style="fill:#263238"></path><path d="M198.69,135.07a24.08,24.08,0,0,0-7.55.68,14.51,14.51,0,0,0-6.43,3.5,14.75,14.75,0,0,0-3.67,6.34,26.3,26.3,0,0,0-1,7.53,19.1,19.1,0,0,1,.11-7.75,13,13,0,0,1,10.77-10.5A18.23,18.23,0,0,1,198.69,135.07Z" style="fill:#263238"></path><path d="M189.43,164.34a26.41,26.41,0,0,0,6.23-6.11,15.79,15.79,0,0,0,2-3.79,19.73,19.73,0,0,0,1-4.29,10.76,10.76,0,0,1-.12,4.55,11.82,11.82,0,0,1-1.89,4.2,14.58,14.58,0,0,1-3.21,3.3A14,14,0,0,1,189.43,164.34Z" style="fill:#263238"></path><path d="M191.72,196.85c-3.7.69-7.56-3.3-8.6-8.89s1.12-10.7,4.82-11.39,7.55,3.3,8.59,8.89S195.42,196.16,191.72,196.85Zm-3.53-18.92c-2.95.55-4.61,4.94-3.71,9.78s4,8.33,7,7.78,4.61-4.94,3.7-9.78S191.14,177.38,188.19,177.93Z" style="fill:#a6a6a6"></path><path d="M214.44,192.61c-5.22,1-10.31-2.78-11.35-8.37s2.35-10.93,7.57-11.91S221,175.11,222,180.7,219.66,191.63,214.44,192.61Zm-3.53-18.92c-4.47.84-7.37,5.45-6.46,10.29s5.27,8.1,9.74,7.27,7.37-5.45,6.47-10.29S215.39,172.86,210.91,173.69Z" style="fill:#a6a6a6"></path><path d="M203.37,183.24c-5.41-.83-7.39,1.25-7.41,1.27l-1-.91c.09-.11,2.42-2.69,8.65-1.73Z" style="fill:#a6a6a6"></path><path d="M221.17,180l-.5-1.29c.85-.33,20.83-8,23.06-8.55s8.45,1.49,9.14,1.72l-.45,1.31c-1.73-.6-6.52-2-8.26-1.71l-.1,0C242.34,171.87,228.34,177.19,221.17,180Z" style="fill:#a6a6a6"></path><path d="M236.5,179.07s4.23-13.06,9.93-11.87,4.82,18.52-.26,22.41a6.09,6.09,0,0,1-8.77-.75Z" style="fill:#ad6359"></path><path d="M246.06,172.16c.09,0,.14.09.07.15-3.52,2.85-4.49,7.23-4.79,11.55.74-1.86,2.11-3.17,4.54-2.36a.13.13,0,0,1,0,.25,3.73,3.73,0,0,0-3.56,2.46,18.05,18.05,0,0,0-.92,3.77c-.08.42-.78.43-.77,0v-.1C238.92,182.75,240.71,174.36,246.06,172.16Z" style="fill:#263238"></path><path d="M276.37,266.33c-1.48,32.86-14.54,91.2-29.91,101.73-14.91,10.21-95.6-10.89-110.75-19.33-6-3.36,18.91-44,26.17-42.73,26.48,4.72,54.94,16.12,59,14.18,2.29-1.09,18.77-38.47,31.31-61C268,230.88,277,251.59,276.37,266.33Z" style="fill:#ad6359"></path><path d="M144.14,352.37c-14.63-2-41.18-17.29-49.18-24.5a104.73,104.73,0,0,1-21.73-26c-9.07-15.51-13.87-27.09-12.84-32.67,1.19-6.48,7.23-5.08,21.4,17.59,9.59,15.34,20.24,14.86,27.89,13.76a118.12,118.12,0,0,1,57.07,6.37S158.17,354.31,144.14,352.37Z" style="fill:#ad6359"></path><path d="M91.05,240.33l45.42,48.86c1.34,1.44,1.07,3.18-.6,3.88L106,305.7a5.24,5.24,0,0,1-5.44-1.33L55.13,255.51c-1.34-1.44-1.07-3.18.6-3.88L85.6,239A5.26,5.26,0,0,1,91.05,240.33Z" style="fill:#263238"></path><path d="M93.77,239.33l45.42,48.86c1.34,1.44,1.07,3.18-.6,3.88L108.72,304.7a5.26,5.26,0,0,1-5.45-1.33L57.85,254.51c-1.34-1.44-1.07-3.18.6-3.88L88.32,238A5.26,5.26,0,0,1,93.77,239.33Z" style="fill:#37474f"></path><path d="M94.16,242.58l41.65,44.8c1.27,1.37,1.09,3-.41,3.62l-26.72,11.3a4.88,4.88,0,0,1-5-1.33L62,256.16c-2.6-2.79-2-3.91-.46-4.55l5.35-2.26a1.24,1.24,0,0,1,1.19.43l.15.16a1.49,1.49,0,0,0,2.06.34l12.38-5.23c.7-.29,1.25-.53.44-1.4l-.15-.16c-.34-.37-.37-.78,0-.91l5.35-2.26C89.78,239.69,91.78,240,94.16,242.58Z" style="fill:#fff"></path><path d="M77.18,245.87,73.8,247.3a.39.39,0,0,1-.37-.09h0a.16.16,0,0,1,0-.27l3.37-1.42a.36.36,0,0,1,.37.08h0A.15.15,0,0,1,77.18,245.87Z" style="fill:#fff"></path><polygon points="113.97 270.96 91.27 280.56 73.41 261.35 96.11 251.75 113.97 270.96" style="fill:#FFC727"></polygon><polygon points="107.45 278.12 94.2 283.72 93.15 282.59 106.4 276.99 107.45 278.12" style="fill:#a6a6a6"></polygon><polygon points="111.61 278.94 95.92 285.57 95.4 285.01 111.09 278.38 111.61 278.94" style="fill:#a6a6a6"></polygon><polygon points="112.57 279.97 96.89 286.6 96.36 286.04 112.05 279.41 112.57 279.97" style="fill:#a6a6a6"></polygon><polygon points="113.53 281.01 97.85 287.64 97.32 287.07 113.01 280.44 113.53 281.01" style="fill:#a6a6a6"></polygon><polygon points="70.8 254.31 67.97 255.5 67.54 255.04 70.37 253.84 70.8 254.31" style="fill:#a6a6a6"></polygon><polygon points="71.59 255.16 68.76 256.35 68.33 255.89 71.16 254.69 71.59 255.16" style="fill:#a6a6a6"></polygon><polygon points="72.38 256.01 69.56 257.21 69.12 256.74 71.95 255.54 72.38 256.01" style="fill:#a6a6a6"></polygon><path d="M116.35,273.92a1.62,1.62,0,0,1-.21.87,4.52,4.52,0,0,1-1.29-.24c-.82-.28-1.34-.92-.78-1.15s1,.28,1,.28-.4-.56,0-.74S116.34,273.3,116.35,273.92Z" style="fill:#FFC727"></path><polygon points="127.05 288.31 108.73 296.06 104.6 291.62 122.92 283.88 127.05 288.31" style="fill:#FFC727"></polygon><path d="M105.83,300.91c7.94-.87-19.8-13.74-21.31-22.7s7.62-7.22,15.18-3c26.23,14.68,44.27,11.57,58.56,26.93S105.83,300.91,105.83,300.91Z" style="fill:#ad6359"></path><path d="M170.63,307.29l-32.28,57.92s93.76,16.14,108.72,7.76,24.11-48.79,29.51-89.14-9.42-59.93-29.35-22.31-25.13,54.36-27.85,55.33S170.63,307.29,170.63,307.29Z" style="fill:#37474f"></path><path d="M155.74,364.63c3.37-6.89,7.09-13.6,10.84-20.29s7.49-13.42,11.41-20c2.21-3.73,4.4-7.48,6.75-11.14.06-.09.23,0,.18.09-3.35,6.88-7.06,13.61-10.75,20.32s-7.49,13.43-11.33,20.08c-2.17,3.76-4.41,7.48-6.75,11.14C156,365,155.64,364.83,155.74,364.63Z" style="fill:#263238"></path><path d="M278.07,288.28a.08.08,0,0,0-.16,0c-.56,2-1.14,4-1.71,6.05-.23.8-.48,1.59-.73,2.39.3-2.43.54-4.87.8-7.31.3-2.81.56-5.64.71-8.47,0-.1-.17-.12-.19,0-.36,2.49-.69,5-1.05,7.48s-.8,4.9-1.21,7.35c-.85,4.93-1.75,9.87-2.73,14.78-2,9.8-4.4,19.5-7.16,29.1-1.56,5.41-3,10.87-4.94,16.17,0,.1.12.13.15,0,1.79-4.75,3.67-9.45,5.29-14.26s3-9.5,4.25-14.31A241.31,241.31,0,0,0,275.17,299c.54-1.46,1-3,1.39-4.46C277.15,292.44,277.64,290.38,278.07,288.28Z" style="fill:#263238"></path><path d="M215.22,316.47a33.39,33.39,0,0,0-4.33-1.07c-1.45-.32-2.92-.61-4.38-.9l-8.75-1.8c-5.8-1.21-11.58-2.46-17.39-3.62-1.62-.33-8.37-1.85-10-2.15,0,0-.83,2.08-.83,2.12a.07.07,0,0,0,.12.06s.82-1.45.83-1.51c1.42.39,7.14,1.88,8.59,2.22,2.9.69,5.8,1.34,8.71,2,5.82,1.27,11.66,2.46,17.51,3.64,1.62.32,3.24.66,4.87,1a34.17,34.17,0,0,0,5,.75C215.57,317.16,215.56,316.6,215.22,316.47Z" style="fill:#263238"></path><path d="M201.49,373.47c-2.21-.63-39.74-5.44-42-5.77q-6.88-1-13.78-2l-6.8-1a111.72,111.72,0,0,0,6.39-12c0-.09-.09-.12-.14-.05-.65.91-8.53,12.94-8,13,4.6.62,9.71,1.36,14.31,2s47.41,6.12,50,6.14A.18.18,0,0,0,201.49,373.47Z" style="fill:#263238"></path></g><g id="freepik--Drinks--inject-146"><polygon points="223.66 439.27 157.36 439.27 168.58 419.96 211.32 419.96 223.66 439.27" style="fill:#FFC727"></polygon><polygon points="692.64 432.74 626.34 432.74 637.56 413.43 680.3 413.43 692.64 432.74" style="fill:#FFC727"></polygon><path d="M213.4,342.62c0,37.32-8.84,42.76-22.89,42.76-13.54,0-22.82-5.44-22.82-42.76Z" style="fill:#ebebeb"></path><rect x="188.65" y="378.07" width="3.79" height="45.93" style="fill:#ebebeb"></rect><polygon points="211.56 427.76 169.53 427.76 190.54 423.08 211.56 427.76" style="fill:#ebebeb"></polygon><path d="M190.54,381.13c-8.41,0-16.34-2.82-18.19-25.31,0,0,3,5.65,7.39,7.06s18-7.06,28.9-7.06C208.64,355.82,210.16,381.13,190.54,381.13Z" style="fill:#FFC727"></path><path d="M123,427.76H84.85c-1.81,0,0-62.83,0-69.26s13.63-26.95,13.63-30.59v-36h10.91v36c0,3.64,13.63,24.19,13.63,30.59S124.83,427.76,123,427.76Z" style="fill:#455a64"></path><rect x="84.05" y="386.17" width="39.76" height="28.82" style="fill:#FFC727"></rect><rect x="99.67" y="287.4" width="8.53" height="4.47" style="fill:#FFC727"></rect><rect x="99.67" y="287.4" width="8.53" height="4.47" style="opacity:0.2"></rect><rect x="620.59" y="364.61" width="1.74" height="79.61" transform="translate(172.13 994.22) rotate(-85.75)" style="fill:#FFC727"></rect><path d="M601.86,434.43,587.16,402l19.33-29.87s-2.44,3.58-.89,12c0,0-2.93,4.28-.88,11.83,0,0-3,5.72-.87,11.68a15.93,15.93,0,0,0-.9,12.11S599.72,422.23,601.86,434.43Z" style="fill:#455a64"></path><path d="M603,419.72c-2.78-2.81-5.43-5.76-8.08-8.69s-5.24-5.93-7.71-9c2.78,2.82,5.43,5.76,8.08,8.69S600.47,416.63,603,419.72Z" style="fill:#263238"></path><path d="M605.6,384.1q-2.21,2.34-4.48,4.62l-4.57,4.52-4.65,4.43q-2.34,2.2-4.74,4.34,2.21-2.34,4.47-4.61l4.57-4.52,4.65-4.44C602.41,387,604,385.53,605.6,384.1Z" style="fill:#263238"></path><path d="M603.85,407.61c-2.85-.74-5.63-1.66-8.42-2.56s-5.56-1.91-8.27-3c2.85.74,5.63,1.66,8.42,2.56S601.14,406.48,603.85,407.61Z" style="fill:#263238"></path><path d="M604.72,395.93c-2.86,1.21-5.78,2.24-8.7,3.28s-5.87,2-8.86,2.8c2.86-1.21,5.78-2.23,8.7-3.27S601.73,396.75,604.72,395.93Z" style="fill:#263238"></path></g></svg>